<svg width="25" height="25" viewBox="0 0 25 25" fill="none" xmlns="http://www.w3.org/2000/svg">
<path d="M15.5208 6.66667C14.7917 6.66667 14.4792 6.66667 12.5 6.66667C10.5208 6.66667 10.4167 6.66667 9.47917 6.66667C7.60417 6.66667 6.5625 7.70833 6.5625 9.58333C6.5625 10.3125 6.5625 10.625 6.5625 12.6042C6.5625 14.5833 6.5625 14.6875 6.5625 15.625C6.66667 17.6042 7.60417 18.5417 9.58333 18.6458C10.3125 18.6458 10.625 18.6458 12.6042 18.6458C14.5833 18.6458 14.6875 18.6458 15.625 18.6458C17.6042 18.5417 18.5417 17.6042 18.6458 15.625C18.6458 14.8958 18.6458 14.5833 18.6458 12.6042C18.6458 10.625 18.6458 10.5208 18.6458 9.58333C18.3333 7.60417 17.3958 6.66667 15.5208 6.66667ZM12.5 16.25C10.4167 16.25 8.75 14.5833 8.75 12.5C8.75 10.4167 10.4167 8.75 12.5 8.75C14.5833 8.75 16.25 10.4167 16.25 12.5C16.25 14.5833 14.5833 16.25 12.5 16.25ZM16.3542 9.47917C15.8333 9.47917 15.5208 9.0625 15.5208 8.64583C15.5208 8.22917 15.9375 7.8125 16.3542 7.8125C16.875 7.8125 17.1875 8.22917 17.1875 8.64583C17.1875 9.0625 16.875 9.47917 16.3542 9.47917ZM14.8958 12.5C14.8958 13.8542 13.75 14.8958 12.5 14.8958C11.25 14.8958 10.1042 13.75 10.1042 12.5C10.1042 11.25 11.25 10.1042 12.5 10.1042C13.75 10.1042 14.8958 11.1458 14.8958 12.5ZM12.5 0C5.625 0 0 5.625 0 12.5C0 19.375 5.625 25 12.5 25C19.375 25 25 19.375 25 12.5C25 5.625 19.375 0 12.5 0ZM19.7917 15.5208C19.6875 18.125 18.125 19.6875 15.5208 19.7917C14.7917 19.7917 14.4792 19.7917 12.5 19.7917C10.5208 19.7917 10.2083 19.7917 9.47917 19.7917C6.875 19.6875 5.3125 18.125 5.20833 15.5208C5.20833 14.7917 5.20833 14.4792 5.20833 12.5C5.20833 10.5208 5.20833 10.2083 5.20833 9.47917C5.3125 6.875 6.875 5.3125 9.47917 5.20833C10.2083 5.20833 10.5208 5.20833 12.5 5.20833C14.4792 5.20833 14.7917 5.20833 15.5208 5.20833C18.125 5.3125 19.6875 6.875 19.7917 9.47917C19.7917 10.2083 19.7917 10.5208 19.7917 12.5C19.7917 14.4792 19.7917 14.7917 19.7917 15.5208Z" fill="black"/>
</svg>
