<svg width="790" height="300" viewBox="0 0 790 300" fill="none" xmlns="http://www.w3.org/2000/svg">
<rect width="790" height="300" fill="white"/>
<path d="M411.209 125.186C408.173 128.222 403.619 129.872 399.593 129.872C388.175 129.872 383.753 121.886 383.687 114.23C383.621 106.508 388.439 98.192 399.593 98.192C403.619 98.192 407.711 99.578 410.747 102.548L416.555 96.938C411.803 92.252 405.863 89.876 399.593 89.876C382.895 89.876 375.041 102.152 375.107 114.23C375.173 126.242 382.433 138.056 399.593 138.056C406.259 138.056 412.397 135.878 417.149 131.192L411.209 125.186ZM453.014 89.876C437.042 89.876 429.254 102.086 429.254 114.23C429.254 126.374 436.778 138.056 453.014 138.056C469.25 138.056 476.576 126.11 476.708 114.164C476.84 102.086 468.92 89.876 453.014 89.876ZM453.014 97.796C463.904 97.796 468.26 106.508 468.128 114.296C467.996 121.886 463.904 130.07 453.014 130.07C442.124 130.07 438.032 121.952 437.834 114.362C437.636 106.574 442.124 97.796 453.014 97.796ZM527.142 125.186C524.106 128.222 519.552 129.872 515.526 129.872C504.108 129.872 499.686 121.886 499.62 114.23C499.554 106.508 504.372 98.192 515.526 98.192C519.552 98.192 523.644 99.578 526.68 102.548L532.488 96.938C527.736 92.252 521.796 89.876 515.526 89.876C498.828 89.876 490.974 102.152 491.04 114.23C491.106 126.242 498.366 138.056 515.526 138.056C522.192 138.056 528.33 135.878 533.082 131.192L527.142 125.186ZM584.39 90.8H573.566L556.01 110.336V90.8H547.298V137H556.01V116.54L575.348 137H586.106V136.472L563.864 113.174L584.39 91.064V90.8ZM611.732 137H620.444V98.72H635.096V90.8C621.698 90.8 610.412 90.8 597.08 90.8V98.72H611.732V137ZM686.327 137H695.831L675.107 90.8H665.603L644.879 137H654.317L658.277 128.288H682.433L686.327 137ZM678.935 120.17H661.775L670.355 100.502L678.935 120.17ZM717.019 137V90.8H708.373V137H717.019ZM734.433 90.8V137H766.905V128.948H743.145V90.8H734.433Z" fill="black"/>
<path d="M413.775 160.8H402.951L385.395 180.336V160.8H376.683V207H385.395V186.54L404.733 207H415.491V206.472L393.249 183.174L413.775 161.064V160.8ZM441.843 207V160.8H433.197V207H441.843ZM477.291 207H486.003V168.72H500.655V160.8C487.257 160.8 475.971 160.8 462.639 160.8V168.72H477.291V207ZM554.592 168.39C551.094 161.262 543.636 159.216 536.442 159.216C527.928 159.282 518.556 163.176 518.556 172.68C518.556 183.042 527.268 185.55 536.706 186.672C542.844 187.332 547.398 189.114 547.398 193.47C547.398 198.486 542.25 200.4 536.772 200.4C531.162 200.4 525.816 198.156 523.77 193.074L516.51 196.836C519.942 205.284 527.202 208.188 536.64 208.188C546.936 208.188 556.044 203.766 556.044 193.47C556.044 182.448 547.068 179.94 537.432 178.752C531.888 178.092 527.136 176.97 527.136 172.944C527.136 169.512 530.238 166.806 536.706 166.806C541.722 166.806 546.078 169.314 547.662 171.954L554.592 168.39Z" fill="black"/>
<rect x="28" y="29" width="310" height="242" fill="white" stroke="black" stroke-width="10"/>
<path d="M181.849 135.772C181.834 137.538 181.529 139.066 181.777 140.847C207.315 140.969 232.814 141.21 258.32 140.814C258.371 140.973 258.421 141.135 258.471 141.293C256.81 143.117 255.159 144.944 253.49 146.76C243.494 157.645 233.566 168.594 223.437 179.352C221.329 181.59 220.412 183.748 220.48 186.809C220.664 194.805 220.466 202.808 220.505 210.808C220.548 219.448 226.332 227.153 234.605 229.627C240.026 231.246 245.493 232.703 250.914 234.325C256.59 236.023 258.525 242.594 254.68 246.954C252.892 248.983 250.5 249.533 247.932 249.533C237.102 249.54 226.268 249.537 215.437 249.537C206.312 249.537 197.19 249.547 188.064 249.533C184.162 249.526 180.259 249.486 176.36 249.436C172.435 249.382 169.662 246.914 168.95 242.893C168.299 239.213 170.241 235.904 173.853 234.605C179.277 232.66 184.902 231.386 190.435 229.811C199.945 227.095 205.204 218.362 205.035 209.707C204.866 201.125 204.941 192.535 204.938 183.949C204.938 183.122 204.772 182.431 204.2 181.816C196.6 173.568 189.007 165.31 181.406 157.058C181.28 156.922 181.108 156.832 180.978 156.735C180.413 156.925 180.536 157.375 180.507 157.731C178.489 181.011 174.191 203.905 168.954 226.645C167.673 232.206 166.464 237.782 165.22 243.353C165.144 243.688 165.069 244.019 164.982 244.35C163.583 249.828 160.357 252.472 154.692 252.421C148.307 252.364 141.922 252.105 135.538 251.921C127.545 251.695 119.553 251.464 111.56 251.22C110.391 251.184 109.215 251.134 108.064 250.954C103.309 250.202 100.546 247.238 99.4853 241.864C97.3307 230.951 95.4351 219.998 93.9855 208.97C92.1331 194.895 90.6727 180.784 89.8634 166.608C89.2015 155.015 89.0037 143.411 89.3274 131.8C89.4209 128.488 89.6008 125.175 89.8022 121.866C89.8957 120.312 89.6188 118.902 88.9353 117.488C86.7808 113.046 87.6764 109.287 91.7626 106.503C94.8667 104.388 96.1293 101.338 96.7516 97.9062C97.9889 91.0864 101.478 85.9283 107.636 82.6407C108.107 82.3889 108.539 82.0508 109.017 81.8134C112.463 80.0904 114.111 77.3351 114.535 73.4756C115.096 68.3427 116.074 63.2566 116.891 58.1525C117.405 54.926 119.24 52.6635 122.074 51.1276C127.38 48.25 133.128 47.8112 138.991 48.0594C142.854 48.2249 146.656 48.7716 150.289 50.2176C152.584 51.1276 154.71 52.3506 156.519 53.9836C157.893 55.2246 158.271 57.1166 158.53 58.8899C159.296 64.1523 159.972 69.4362 160.173 74.7453C160.321 78.6337 161.803 81.4321 165.101 83.4392C166.72 84.4248 168.234 85.6082 169.687 86.8275C173.756 90.2303 175.766 94.7445 176.41 99.9097C176.856 103.474 178.093 106.586 180.86 109.017C181.608 109.676 182.32 109.999 183.323 109.996C194.888 109.967 206.452 109.978 218.016 109.978C234.897 109.978 251.781 109.985 268.662 109.97C270.881 109.967 272.942 110.391 274.661 111.866C277.769 114.535 278.366 119.006 275.758 122.272C271.985 126.995 267.662 131.243 263.539 135.782C236.357 135.772 209.207 135.772 181.849 135.772Z" fill="#B13639"/>
<path d="M96.2624 121.38C99.2695 121.229 102.129 121.502 104.992 121.585C115.517 121.898 126.045 122.222 136.57 122.542C148.85 122.916 161.13 123.286 173.41 123.664C175.173 123.718 175.658 124.186 175.644 125.995C175.576 136.728 175.04 147.436 174.011 158.123C172.964 168.95 171.569 179.734 169.86 190.474C167.112 207.776 163.558 224.908 159.098 241.853C158.13 245.533 157.317 246.224 153.465 246.123C142.207 245.824 130.952 245.447 119.693 245.112C116.769 245.026 113.841 244.986 110.916 244.911C107.363 244.821 106.294 243.965 105.686 240.515C101.938 219.236 98.5069 197.906 96.8559 176.338C96.1113 166.616 95.6365 156.879 95.5178 147.124C95.4207 138.926 95.6509 130.743 96.1257 122.567C96.1545 122.229 96.2049 121.898 96.2624 121.38Z" fill="white"/>
<path d="M247.324 146.044C245.4 148.17 243.753 150.016 242.073 151.836C234.174 160.404 226.3 168.993 218.344 177.507C216.437 179.547 215.495 181.712 215.534 184.561C215.664 193.388 215.581 202.218 215.585 211.049C215.588 221.379 222.44 230.937 232.325 234.109C237.476 235.764 242.72 237.116 247.921 238.613C248.529 238.789 249.137 238.972 249.738 239.177C251.058 239.627 251.741 240.562 251.644 241.951C251.547 243.343 250.72 244.166 249.367 244.429C248.799 244.54 248.209 244.587 247.63 244.587C225.239 244.594 202.851 244.598 180.46 244.587C179.05 244.587 177.637 244.494 176.227 244.443C174.705 244.389 174.108 243.357 173.874 242.08C173.64 240.796 174.047 239.792 175.41 239.314C180.108 237.663 184.953 236.512 189.755 235.231C196.675 233.386 202.42 229.955 206.215 223.71C208.563 219.84 209.887 215.664 209.876 211.092C209.858 201.97 209.826 192.848 209.905 183.726C209.923 181.622 209.283 179.993 207.873 178.468C199.168 169.051 190.514 159.591 181.845 150.141C181.615 149.893 181.403 149.627 181.19 149.382C181.147 148.275 181.18 147.21 181.449 146.044C203.276 146.044 225.088 146.044 247.324 146.044Z" fill="white"/>
<path d="M182.054 130.75C182.054 127.912 182.043 125.29 182.064 122.664C182.068 122.333 182.169 121.97 182.338 121.682C183.532 119.646 184.532 117.549 184.482 115.258C185.151 114.805 185.705 114.934 186.226 114.934C213.599 114.927 240.972 114.927 268.345 114.931C268.687 114.931 269.028 114.916 269.37 114.945C270.554 115.039 271.586 115.434 272.089 116.603C272.589 117.765 272.237 118.815 271.435 119.711C269.025 122.394 266.597 125.067 264.165 127.732C263.248 128.739 262.299 129.714 261.324 130.747C234.922 130.75 208.542 130.75 182.054 130.75Z" fill="white"/>
<path d="M171.202 106.467C147.965 105.766 124.93 105.071 101.701 104.37C103.111 97.3128 104.622 90.7267 111.773 87.4643C113.571 86.6442 114.999 85.2773 116.427 83.9572C117.779 82.7091 119.225 82.0652 121.15 82.1372C132.203 82.5508 143.26 82.8673 154.317 83.1911C155.317 83.2198 156.073 83.6047 156.807 84.227C159.594 86.5938 162.414 88.921 165.209 91.2771C167.072 92.8453 168.511 94.7337 169.263 97.0754C170.216 100.043 170.626 103.122 171.202 106.467Z" fill="white"/>
<path d="M153.742 76.569C142.775 76.2381 131.844 75.9108 120.916 75.5834C120.535 74.3425 120.938 73.2958 121.089 72.267C121.65 68.4111 122.312 64.5695 122.92 60.7172C123.34 58.0302 124.819 56.3936 127.477 55.6418C134.455 53.6671 141.34 53.8613 148.177 56.2353C151.379 57.3468 152.497 58.7532 152.684 62.1128C152.925 66.3464 153.415 70.5585 153.85 74.7741C153.904 75.2993 154.062 75.8352 153.742 76.569Z" fill="white"/>
<path d="M178.043 113.79C178.547 116.873 178.007 117.452 174.925 117.362C158.997 116.902 143.07 116.449 127.146 115.988C117.064 115.697 106.981 115.402 96.899 115.107C96.5106 115.096 96.1185 115.078 95.7336 115.017C94.6797 114.852 93.8272 114.441 93.8992 113.175C93.9747 111.895 94.597 110.981 95.9494 110.96C97.8954 110.927 99.845 111.032 101.791 111.089C113.625 111.431 125.463 111.769 137.297 112.125C150.008 112.506 162.716 112.909 175.428 113.298C176.313 113.323 177.155 113.528 178.043 113.79Z" fill="white"/>
</svg>
