<svg width="241" height="55" viewBox="0 0 241 55" fill="none" xmlns="http://www.w3.org/2000/svg">
<path d="M63.1284 15H87.427V19.5235H77.8597V45.023H72.6157V19.5235H63.0884L63.1284 15ZM86.3862 23.2863H90.8697V27.4896H90.9497C91.1098 26.8891 91.3901 26.3287 91.7904 25.7682C92.1907 25.2078 92.671 24.6874 93.2715 24.2471C93.8319 23.7667 94.4724 23.4064 95.193 23.1262C95.8735 22.846 96.594 22.6859 97.3146 22.6859C97.875 22.6859 98.2753 22.7259 98.4755 22.7259C98.6756 22.7659 98.9158 22.806 99.116 22.806V27.4095C98.7957 27.3294 98.4355 27.2894 98.0752 27.2494C97.7149 27.2093 97.3947 27.1693 97.0344 27.1693C96.2338 27.1693 95.4732 27.3294 94.7526 27.6497C94.0321 27.9699 93.4316 28.4503 92.8712 29.0507C92.3508 29.6912 91.9105 30.4518 91.5902 31.3725C91.27 32.2932 91.1098 33.3741 91.1098 34.575V44.9029H86.3062L86.3862 23.2863ZM121.133 45.023H116.409V41.9807H116.329C115.729 43.1015 114.848 43.9422 113.687 44.6227C112.526 45.3032 111.325 45.6234 110.124 45.6234C107.282 45.6234 105.201 44.9429 103.92 43.5018C102.639 42.1007 101.998 39.9391 101.998 37.0969V23.2863H106.802V36.6166C106.802 38.538 107.162 39.8991 107.923 40.6596C108.643 41.4602 109.684 41.8606 111.005 41.8606C112.006 41.8606 112.846 41.7004 113.527 41.3802C114.208 41.06 114.768 40.6596 115.168 40.1392C115.609 39.6188 115.889 38.9783 116.089 38.2578C116.289 37.5372 116.369 36.7366 116.369 35.896V23.2863H121.173V45.023H121.133ZM129.299 38.0576C129.459 39.4587 129.98 40.4195 130.9 41.0199C131.821 41.5804 132.942 41.8606 134.223 41.8606C134.663 41.8606 135.184 41.8205 135.744 41.7405C136.304 41.6604 136.865 41.5403 137.345 41.3402C137.866 41.14 138.266 40.8598 138.586 40.4595C138.906 40.0592 139.067 39.5788 139.027 38.9784C138.987 38.3779 138.786 37.8575 138.346 37.4572C137.906 37.0569 137.385 36.7767 136.745 36.4965C136.104 36.2563 135.344 36.0561 134.503 35.896C133.662 35.7359 132.822 35.5357 131.941 35.3356C131.06 35.1354 130.18 34.8952 129.339 34.615C128.498 34.3348 127.778 33.9745 127.097 33.4541C126.457 32.9738 125.896 32.3733 125.536 31.6127C125.136 30.8521 124.936 29.9715 124.936 28.8506C124.936 27.6497 125.216 26.6889 125.816 25.8883C126.377 25.0877 127.137 24.4472 128.018 23.9669C128.899 23.4865 129.9 23.1262 130.98 22.9261C132.061 22.7259 133.102 22.6458 134.063 22.6458C135.184 22.6458 136.264 22.7659 137.265 23.0061C138.266 23.2463 139.227 23.6066 140.027 24.167C140.868 24.6874 141.548 25.408 142.069 26.2486C142.629 27.0892 142.95 28.13 143.11 29.331H138.106C137.866 28.1701 137.345 27.4095 136.545 27.0092C135.704 26.6089 134.783 26.4087 133.702 26.4087C133.382 26.4087 132.942 26.4488 132.502 26.4888C132.021 26.5689 131.621 26.6489 131.181 26.809C130.78 26.9692 130.42 27.2093 130.14 27.4896C129.86 27.7698 129.699 28.1701 129.699 28.6504C129.699 29.2509 129.9 29.6912 130.3 30.0515C130.7 30.4118 131.221 30.692 131.901 30.9722C132.542 31.2124 133.302 31.4126 134.143 31.5727C134.983 31.7328 135.864 31.933 136.745 32.1331C137.625 32.3333 138.466 32.5734 139.307 32.8537C140.147 33.1339 140.908 33.4942 141.548 34.0146C142.189 34.4949 142.749 35.0954 143.15 35.8159C143.55 36.5365 143.75 37.4572 143.75 38.498C143.75 39.779 143.47 40.8598 142.869 41.7805C142.269 42.6612 141.508 43.4218 140.588 43.9822C139.667 44.5426 138.586 44.9429 137.465 45.2231C136.304 45.4633 135.184 45.6234 134.063 45.6234C132.702 45.6234 131.421 45.4633 130.26 45.1431C129.099 44.8228 128.058 44.3425 127.218 43.742C126.377 43.1015 125.696 42.3409 125.216 41.3802C124.736 40.4595 124.455 39.3386 124.415 38.0176H129.259V38.0576H129.299ZM145.111 23.2863H148.754V16.7213H153.558V23.2463H157.881V26.809H153.558V38.4179C153.558 38.9383 153.598 39.3386 153.638 39.7389C153.678 40.0992 153.798 40.4195 153.918 40.6596C154.078 40.8998 154.318 41.1 154.598 41.2201C154.919 41.3402 155.319 41.4202 155.879 41.4202C156.2 41.4202 156.56 41.4202 156.88 41.3802C157.2 41.3402 157.561 41.3001 157.881 41.2201V44.9429C157.361 45.023 156.84 45.063 156.32 45.103C155.799 45.1831 155.319 45.1831 154.759 45.1831C153.478 45.1831 152.477 45.063 151.716 44.8228C150.956 44.5826 150.355 44.2224 149.915 43.782C149.475 43.3017 149.194 42.7412 149.034 42.0607C148.874 41.3802 148.794 40.5395 148.754 39.6589V26.8491H145.111V23.2063V23.2863ZM161.244 23.2863H165.767V26.2486H165.847C166.528 24.9676 167.448 24.087 168.649 23.5265C169.85 22.9661 171.131 22.6859 172.572 22.6859C174.294 22.6859 175.775 22.9661 177.056 23.6066C178.337 24.207 179.377 25.0077 180.218 26.0885C181.059 27.1293 181.699 28.3702 182.1 29.7713C182.5 31.1724 182.74 32.6935 182.74 34.2547C182.74 35.7359 182.54 37.1369 182.18 38.498C181.779 39.859 181.219 41.1 180.458 42.1408C179.698 43.1816 178.737 44.0222 177.536 44.6627C176.335 45.3032 174.974 45.6234 173.373 45.6234C172.692 45.6234 171.972 45.5434 171.291 45.4233C170.611 45.3032 169.93 45.103 169.29 44.8228C168.649 44.5426 168.049 44.1823 167.528 43.742C166.968 43.3017 166.528 42.7813 166.167 42.2208H166.087V53.0691H161.284V23.2863H161.244ZM178.016 34.1747C178.016 33.2139 177.896 32.2532 177.616 31.3325C177.376 30.4118 176.976 29.6112 176.455 28.8906C175.935 28.1701 175.294 27.6097 174.574 27.1693C173.813 26.729 172.933 26.5288 171.972 26.5288C169.97 26.5288 168.449 27.2093 167.408 28.6104C166.408 30.0115 165.887 31.8929 165.887 34.2147C165.887 35.3356 166.007 36.3363 166.287 37.257C166.568 38.1777 166.928 38.9783 167.488 39.6589C168.009 40.3394 168.649 40.8598 169.41 41.2601C170.17 41.6604 171.011 41.8606 172.012 41.8606C173.133 41.8606 174.013 41.6204 174.774 41.18C175.535 40.7397 176.135 40.1392 176.655 39.4587C177.136 38.7382 177.496 37.9376 177.696 37.0169C177.896 36.0561 178.016 35.1354 178.016 34.1747ZM186.463 15H191.267V19.5235H186.463V15ZM186.463 23.2863H191.267V45.023H186.463V23.2863ZM195.55 15H200.354V45.023H195.55V15ZM215.005 45.6234C213.283 45.6234 211.722 45.3432 210.361 44.7428C209 44.1423 207.879 43.3817 206.919 42.381C205.998 41.3802 205.277 40.1392 204.797 38.7382C204.317 37.3371 204.036 35.7759 204.036 34.1346C204.036 32.4934 204.277 30.9722 204.797 29.5712C205.277 28.1701 205.998 26.9692 206.919 25.9284C207.839 24.9276 209 24.127 210.361 23.5666C211.722 23.0061 213.283 22.6859 215.005 22.6859C216.726 22.6859 218.287 22.9661 219.648 23.5666C221.009 24.127 222.13 24.9276 223.091 25.9284C224.012 26.9291 224.732 28.1701 225.213 29.5712C225.693 30.9722 225.973 32.4934 225.973 34.1346C225.973 35.8159 225.733 37.3371 225.213 38.7382C224.692 40.1392 224.012 41.3402 223.091 42.381C222.17 43.3817 221.009 44.1823 219.648 44.7428C218.287 45.3032 216.766 45.6234 215.005 45.6234ZM215.005 41.8205C216.046 41.8205 217.006 41.5803 217.767 41.14C218.567 40.6997 219.168 40.0992 219.688 39.3787C220.209 38.6581 220.569 37.8175 220.809 36.9368C221.049 36.0161 221.169 35.0954 221.169 34.1346C221.169 33.2139 221.049 32.2932 220.809 31.3725C220.569 30.4518 220.209 29.6512 219.688 28.9307C219.168 28.2101 218.527 27.6497 217.767 27.2093C216.966 26.769 216.046 26.5288 215.005 26.5288C213.964 26.5288 213.003 26.769 212.243 27.2093C211.442 27.6497 210.842 28.2501 210.321 28.9307C209.801 29.6512 209.44 30.4518 209.2 31.3725C208.96 32.2932 208.84 33.2139 208.84 34.1346C208.84 35.0954 208.96 36.0161 209.2 36.9368C209.44 37.8575 209.801 38.6581 210.321 39.3787C210.842 40.0992 211.482 40.6997 212.243 41.14C213.043 41.6204 213.964 41.8205 215.005 41.8205ZM227.414 23.2863H231.057V16.7213H235.861V23.2463H240.184V26.809H235.861V38.4179C235.861 38.9383 235.901 39.3386 235.941 39.7389C235.981 40.0992 236.101 40.4195 236.221 40.6596C236.381 40.8998 236.621 41.1 236.902 41.2201C237.222 41.3402 237.622 41.4202 238.183 41.4202C238.503 41.4202 238.863 41.4202 239.183 41.3802C239.504 41.3402 239.864 41.3001 240.184 41.2201V44.9429C239.664 45.023 239.143 45.063 238.623 45.103C238.102 45.1831 237.622 45.1831 237.062 45.1831C235.781 45.1831 234.78 45.063 234.019 44.8228C233.259 44.5826 232.658 44.2224 232.218 43.782C231.778 43.3017 231.497 42.7412 231.337 42.0607C231.177 41.3802 231.097 40.5395 231.057 39.6589V26.8491H227.414V23.2063V23.2063V23.2863Z" fill="black"/>
<path d="M57.5241 20.896H35.5472L28.7821 0L21.9768 20.896L0 20.856L17.7736 33.7859L10.9684 54.6819L28.742 41.752L46.5157 54.6819L39.7505 33.7859L57.5241 20.896Z" fill="#00B67A"/>
<path d="M41.2718 38.5095L39.7506 33.7859L28.7822 41.752L41.2718 38.5095Z" fill="#005128"/>
</svg>
