<svg width="25" height="25" viewBox="0 0 25 25" fill="none" xmlns="http://www.w3.org/2000/svg">
<circle cx="12.5" cy="12.5" r="12.5" fill="black"/>
<path d="M18.7284 15.5918C18.5788 16.1461 18.1383 16.5826 17.579 16.7308C16.5652 17 12.5 17 12.5 17C12.5 17 8.43481 17 7.42098 16.7308C6.86167 16.5826 6.42116 16.1461 6.27165 15.5918C6 14.5871 6 12.4909 6 12.4909C6 12.4909 6 10.3947 6.27165 9.39001C6.42116 8.83571 6.86167 8.41735 7.42098 8.2692C8.43481 8 12.5 8 12.5 8C12.5 8 16.5652 8 17.579 8.2692C18.1383 8.41735 18.5788 8.83571 18.7284 9.39001C19 10.3947 19 12.4909 19 12.4909C19 12.4909 19 14.5871 18.7284 15.5918ZM11.1704 10.5877V14.3941L14.5682 12.4909L11.1704 10.5877Z" fill="#F5DEAE"/>
</svg>
